<svg width="34" height="34" viewBox="0 0 34 34" fill="none" xmlns="http://www.w3.org/2000/svg">
<path d="M32.7141 33.843H19.9551C23.161 31.1556 26.7493 28.9609 30.6003 27.3304C31.6736 26.8764 32.7798 26.4623 33.8871 26.0999V32.67C33.8871 32.9808 33.7628 33.2788 33.5434 33.4993C33.3229 33.7198 33.025 33.843 32.7141 33.843ZM16.4278 33.843H1.18201C0.869986 33.843 0.572038 33.7198 0.351509 33.4993C0.13098 33.2788 0.0078125 32.9797 0.0078125 32.6688V29.5216C0.383181 29.2494 0.765587 28.982 1.14565 28.7251C5.80256 25.592 11.0378 23.4172 16.544 22.3274C22.0501 21.2377 27.7182 21.2565 33.2185 22.3802C33.4449 22.4271 33.6701 22.4752 33.8871 22.5233V23.6389C29.71 24.9257 25.7463 26.8248 22.1264 29.2729C20.1064 30.6383 18.2003 32.1668 16.4278 33.8418V33.843ZM0.0078125 26.6606V18.3169C0.187285 18.2383 0.364412 18.162 0.534501 18.0893C3.08583 17.0113 5.73687 16.1878 8.45008 15.6318C14.0571 14.4893 19.8378 14.4893 25.446 15.6318C28.1592 16.1878 30.8103 17.0101 33.3604 18.0893C33.5329 18.162 33.7077 18.2383 33.8871 18.3169V20.1221L33.6912 20.0823C27.7721 18.8764 21.6701 18.8764 15.7498 20.0823C10.1252 21.2342 4.77851 23.4688 0.0078125 26.6618V26.6606Z" fill="#08B078"/>
<path d="M8.15527 5.8252L11.1562 5.95898L8.80566 7.83496L9.6084 10.7354L7.10156 9.07715L4.59473 10.7354L5.39746 7.83496L3.0459 5.95898L6.04785 5.8252L7.10254 3.00781L8.15527 5.8252ZM24.2285 7.0498L25.3242 7.10156L24.4668 7.81934L24.7588 8.93164L23.8438 8.2959L22.9287 8.93164L23.2217 7.81934L22.3633 7.10156L23.459 7.0498L23.8438 5.96973L24.2285 7.0498ZM16.7627 3.00781L17.416 4.79199L19.2754 4.87695L17.8193 6.06445L18.3145 7.90137L16.7627 6.85156L15.2109 7.90137L15.7061 6.06445L14.25 4.87695L16.1084 4.79199L16.7617 3.00781H16.7627ZM29.8994 3.13574L30.2861 4.16895L31.3818 4.21777L30.5225 4.90527L30.8145 5.96875L29.8994 5.36035L28.9834 5.96875L29.2754 4.90527L28.418 4.21777L29.5137 4.16895L29.8984 3.13574H29.8994Z" fill="white"/>
<path d="M33.8805 15.8042C31.3069 14.7449 28.6394 13.9308 25.9121 13.3725C22.9596 12.7707 19.9543 12.4681 16.942 12.4681C13.9285 12.4681 10.9232 12.7707 7.97071 13.3725C5.24342 13.9308 2.57479 14.7449 0 15.8042V1.1742C0 0.863347 0.123168 0.564225 0.343696 0.344869C0.563052 0.124341 0.862174 0.00117303 1.17303 0H32.7051C33.016 0 33.3151 0.124341 33.5344 0.344869C33.755 0.565398 33.8781 0.863347 33.8781 1.1742V15.8042H33.8805ZM7.10267 3.00764L6.04812 5.82524L3.04635 5.95897L5.39709 7.83464L4.59474 10.7355L7.1015 9.07687L9.60825 10.7355L8.8059 7.83464L11.1566 5.95897L8.15487 5.82524L7.10267 3.00764ZM23.8441 5.96953L23.4593 7.04988L22.3637 7.1015L23.2212 7.81939L22.9291 8.93142L23.8441 8.29564L24.759 8.93142L24.467 7.81939L25.3244 7.1015L24.2288 7.04988L23.8441 5.96953ZM16.7614 3.00764L16.108 4.79181L14.2499 4.87744L15.7056 6.06454L15.2106 7.9015L16.7625 6.85164L18.3144 7.9015L17.8194 6.06454L19.2752 4.87744L17.4159 4.79181L16.7625 3.00764H16.7614ZM29.8981 3.1355L29.5133 4.16893L28.4177 4.2182L29.2752 4.90559L28.9831 5.96835L29.8992 5.36073L30.8142 5.96835L30.5221 4.90559L31.3819 4.2182L30.2863 4.16893L29.8992 3.1355H29.8981Z" fill="#0252CD"/>
</svg>
