<svg width="169" height="35" viewBox="0 0 169 35" fill="none" xmlns="http://www.w3.org/2000/svg">
<g clip-path="url(#clip0_6264_61327)">
<path d="M55.891 27.3175C55.8934 27.3328 55.891 27.348 55.8875 27.3621C55.8828 27.3762 55.8746 27.3903 55.864 27.4008C55.8535 27.4114 55.8394 27.4196 55.8253 27.4243C55.8113 27.429 55.796 27.4302 55.7808 27.4278H51.8253C51.8194 27.4278 51.8124 27.4278 51.8077 27.429C51.8019 27.4313 51.796 27.4337 51.7925 27.4384C51.7889 27.4431 51.7854 27.4477 51.7831 27.4536C51.7807 27.4595 51.7807 27.4653 51.7819 27.4712V29.8665C51.7819 29.8724 51.7819 29.8794 51.7831 29.8841C51.7854 29.89 51.7878 29.8959 51.7925 29.8994C51.7972 29.9029 51.8019 29.9076 51.8077 29.9088C51.8136 29.9099 51.8194 29.9111 51.8253 29.9099H54.5444C54.5596 29.9076 54.5749 29.9099 54.589 29.9146C54.603 29.9193 54.6171 29.9275 54.6277 29.9381C54.6382 29.9486 54.6464 29.9615 54.6511 29.9768C54.6558 29.992 54.657 30.0073 54.6547 30.0214V30.7228C54.657 30.7381 54.6547 30.7533 54.6511 30.7686C54.6464 30.7827 54.6382 30.7956 54.6277 30.8073C54.6171 30.8178 54.603 30.8261 54.589 30.8307C54.5749 30.8354 54.5596 30.8366 54.5444 30.8343H51.8253C51.8194 30.8343 51.8124 30.8343 51.8077 30.8354C51.8019 30.8378 51.796 30.8401 51.7925 30.8448C51.7878 30.8495 51.7854 30.8542 51.7831 30.8601C51.7807 30.8659 51.7807 30.8718 51.7819 30.8777V33.3293C51.7819 33.3352 51.7819 33.3422 51.7831 33.3469C51.7854 33.3528 51.7878 33.3586 51.7925 33.3621C51.7972 33.3657 51.8019 33.3704 51.8077 33.3715C51.8136 33.3727 51.8194 33.3739 51.8253 33.3727H55.7808C55.796 33.3704 55.8113 33.3727 55.8253 33.3774C55.8394 33.3821 55.8535 33.3903 55.864 33.4008C55.8746 33.4114 55.8828 33.4243 55.8875 33.4396C55.8922 33.4548 55.8934 33.4701 55.891 33.4841V34.1856C55.8934 34.2009 55.891 34.2161 55.8875 34.2314C55.8828 34.2454 55.8746 34.2583 55.864 34.2701C55.8535 34.2806 55.8394 34.2888 55.8253 34.2935C55.8113 34.2982 55.796 34.2994 55.7808 34.297H50.8224C50.8071 34.2994 50.7919 34.297 50.7778 34.2935C50.7637 34.2888 50.7496 34.2806 50.7391 34.2701C50.7285 34.2595 50.7203 34.2454 50.7156 34.2314C50.7109 34.2173 50.7098 34.2009 50.7121 34.1856V26.609C50.7098 26.5938 50.7121 26.5785 50.7156 26.5645C50.7203 26.5504 50.7285 26.5363 50.7391 26.5257C50.7496 26.5152 50.7637 26.507 50.7778 26.5023C50.7919 26.4976 50.8071 26.4964 50.8224 26.4988H55.7808C55.796 26.4964 55.8113 26.4988 55.8253 26.5023C55.8394 26.507 55.8535 26.5152 55.864 26.5257C55.8746 26.5363 55.8828 26.5492 55.8875 26.5645C55.8922 26.5797 55.8934 26.595 55.891 26.609V27.3105V27.3175ZM66.9327 26.6161C66.9304 26.6008 66.9327 26.5856 66.9362 26.5715C66.9409 26.5574 66.9491 26.5433 66.9609 26.5328C66.9714 26.5222 66.9843 26.514 66.9996 26.5093C67.0136 26.5046 67.0289 26.5035 67.0441 26.5058H67.8911C67.9063 26.5035 67.9216 26.5058 67.9356 26.5093C67.9497 26.514 67.9638 26.5222 67.9743 26.5328C67.9849 26.5433 67.9931 26.5562 67.9978 26.5715C68.0025 26.5867 68.0037 26.602 68.0013 26.6161V34.1926C68.0037 34.2079 68.0013 34.2231 67.9978 34.2384C67.9931 34.2525 67.9849 34.2654 67.9743 34.2771C67.9638 34.2877 67.9497 34.2959 67.9356 34.3006C67.9216 34.3053 67.9063 34.3064 67.8911 34.3041H67.0782C67.0512 34.3041 67.0254 34.2959 67.0019 34.2818C66.9785 34.2677 66.9585 34.2489 66.9444 34.2255L63.457 28.5316C63.45 28.5093 63.4383 28.5 63.423 28.5035C63.4078 28.507 63.4007 28.5199 63.4007 28.5422L63.4125 34.1915C63.4148 34.2067 63.4125 34.222 63.4089 34.2372C63.4042 34.2513 63.396 34.2642 63.3855 34.2759C63.3749 34.2865 63.3608 34.2947 63.3468 34.2994C63.3327 34.3041 63.3174 34.3053 63.3022 34.3029H62.4553C62.44 34.3053 62.4248 34.3029 62.4107 34.2994C62.3966 34.2947 62.3825 34.2865 62.372 34.2759C62.3614 34.2654 62.3532 34.2513 62.3485 34.2372C62.3438 34.2231 62.3427 34.2067 62.345 34.1915V26.6149C62.3427 26.5996 62.345 26.5844 62.3485 26.5703C62.3532 26.5562 62.3614 26.5422 62.372 26.5316C62.3825 26.5211 62.3966 26.5128 62.4107 26.5082C62.4248 26.5035 62.44 26.5023 62.4553 26.5046H63.2799C63.3069 26.5046 63.3339 26.5128 63.3561 26.5269C63.3796 26.541 63.3996 26.5598 63.4136 26.5832L66.8905 32.2771C66.8975 32.2994 66.9092 32.3088 66.9245 32.3052C66.9397 32.3017 66.9468 32.2888 66.9468 32.2665L66.935 26.6172L66.9327 26.6161ZM79.7691 26.5046C79.7844 26.5023 79.7996 26.5046 79.8137 26.5082C79.8278 26.5128 79.8418 26.5211 79.8524 26.5316C79.863 26.5422 79.8712 26.5551 79.8759 26.5703C79.8806 26.5856 79.8817 26.6008 79.8794 26.6149V27.3281C79.8817 27.3433 79.8794 27.3586 79.8759 27.3727C79.8712 27.3867 79.863 27.4008 79.8524 27.4114C79.8418 27.4219 79.8278 27.4302 79.8137 27.4348C79.7996 27.4395 79.7844 27.4407 79.7691 27.4384H77.6295C77.6237 27.4384 77.6166 27.4384 77.6119 27.4395C77.6061 27.4419 77.6002 27.4442 77.5967 27.4489C77.592 27.4536 77.5896 27.4583 77.5873 27.4642C77.5849 27.47 77.5849 27.4759 77.5861 27.4818V34.1891C77.5885 34.2044 77.5861 34.2196 77.5826 34.2349C77.5779 34.2489 77.5697 34.2619 77.5591 34.2736C77.5486 34.2841 77.5345 34.2924 77.5204 34.297C77.5064 34.3017 77.4911 34.3029 77.4759 34.3006H76.6289C76.6137 34.3029 76.5984 34.3006 76.5844 34.297C76.5703 34.2924 76.5562 34.2841 76.5456 34.2736C76.5351 34.263 76.5269 34.2489 76.5222 34.2349C76.5175 34.2208 76.5163 34.2044 76.5187 34.1891V27.4818C76.5187 27.4759 76.5187 27.47 76.5175 27.4642C76.5163 27.4583 76.5128 27.4536 76.5081 27.4489C76.5034 27.4442 76.4987 27.4419 76.4929 27.4395C76.487 27.4372 76.4811 27.4372 76.4753 27.4384H74.4365C74.4213 27.4407 74.406 27.4384 74.392 27.4348C74.3779 27.4302 74.3638 27.4219 74.3533 27.4114C74.3427 27.4008 74.3345 27.3879 74.3298 27.3727C74.3251 27.3586 74.3239 27.3422 74.3263 27.3281V26.6149C74.3239 26.5996 74.3263 26.5844 74.3298 26.5703C74.3333 26.5562 74.3427 26.5422 74.3533 26.5316C74.3638 26.5211 74.3779 26.5128 74.392 26.5082C74.406 26.5035 74.4213 26.5023 74.4365 26.5046H79.7738H79.7691ZM91.3563 27.3175C91.3586 27.3328 91.3563 27.348 91.3528 27.3621C91.3481 27.3762 91.3398 27.3903 91.3293 27.4008C91.3187 27.4114 91.3047 27.4196 91.2906 27.4243C91.2765 27.429 91.2612 27.4302 91.246 27.4278H87.2906C87.2847 27.4278 87.2777 27.4278 87.273 27.429C87.2671 27.4313 87.2612 27.4337 87.2577 27.4384C87.253 27.4431 87.2507 27.4477 87.2483 27.4536C87.246 27.4595 87.246 27.4653 87.2472 27.4712V29.8665C87.2472 29.8724 87.2472 29.8794 87.2483 29.8841C87.2507 29.89 87.253 29.8959 87.2577 29.8994C87.2624 29.9041 87.2671 29.9076 87.273 29.9088C87.2788 29.9099 87.2847 29.9111 87.2906 29.9099H90.0096C90.0249 29.9076 90.0401 29.9099 90.0542 29.9146C90.0683 29.9193 90.0824 29.9275 90.0929 29.9381C90.1035 29.9486 90.1117 29.9615 90.1164 29.9768C90.1211 29.9909 90.1222 30.0073 90.1199 30.0214V30.7228C90.1222 30.7381 90.1199 30.7533 90.1164 30.7686C90.1117 30.7827 90.1035 30.7956 90.0929 30.8073C90.0824 30.8178 90.0683 30.8261 90.0542 30.8307C90.0401 30.8354 90.0249 30.8366 90.0096 30.8343H87.2906C87.2847 30.8343 87.2777 30.8343 87.273 30.8354C87.2671 30.8366 87.2612 30.8401 87.2577 30.8448C87.253 30.8495 87.2495 30.8542 87.2483 30.8601C87.2472 30.8659 87.246 30.8718 87.2472 30.8777V33.3293C87.2472 33.3352 87.2472 33.3422 87.2483 33.3481C87.2507 33.3539 87.2542 33.3598 87.2577 33.3633C87.2624 33.368 87.2671 33.3704 87.273 33.3727C87.2788 33.375 87.2847 33.375 87.2906 33.3739H91.246C91.2612 33.3715 91.2765 33.3739 91.2906 33.3786C91.3047 33.3833 91.3187 33.3915 91.3293 33.402C91.3398 33.4126 91.3481 33.4255 91.3528 33.4407C91.3574 33.456 91.3586 33.4712 91.3563 33.4853V34.1868C91.3586 34.202 91.3563 34.2173 91.3528 34.2325C91.3481 34.2466 91.3398 34.2595 91.3293 34.2712C91.3187 34.2818 91.3047 34.29 91.2906 34.2947C91.2765 34.2994 91.2612 34.3006 91.246 34.2982H86.2876C86.2724 34.3006 86.2571 34.2982 86.2431 34.2947C86.229 34.29 86.2149 34.2818 86.2043 34.2712C86.1938 34.2607 86.1856 34.2466 86.1797 34.2325C86.175 34.2184 86.1738 34.202 86.1762 34.1868V26.6102C86.1738 26.595 86.1762 26.5797 86.1797 26.5656C86.1844 26.5516 86.1926 26.5375 86.2043 26.5269C86.2149 26.5164 86.2278 26.5082 86.2431 26.5035C86.2571 26.4988 86.2724 26.4976 86.2876 26.4999H91.246C91.2612 26.4976 91.2765 26.4999 91.2906 26.5035C91.3047 26.5082 91.3187 26.5164 91.3293 26.5269C91.3398 26.5375 91.3481 26.5504 91.3528 26.5656C91.3574 26.5809 91.3586 26.5961 91.3563 26.6102V27.3117V27.3175ZM102.254 34.3029C102.228 34.3053 102.202 34.2982 102.18 34.2841C102.157 34.2701 102.141 34.2489 102.132 34.2243L100.572 30.8929C100.569 30.8835 100.563 30.8742 100.555 30.8683C100.547 30.8624 100.538 30.8589 100.527 30.8589H98.9223C98.9164 30.8589 98.9094 30.8589 98.9047 30.8601C98.8988 30.8624 98.893 30.8648 98.8894 30.8695C98.8847 30.8742 98.8824 30.8788 98.8801 30.8847C98.8777 30.8906 98.8777 30.8964 98.8789 30.9023V34.1891C98.8812 34.2044 98.8789 34.2196 98.8754 34.2349C98.8707 34.2489 98.8625 34.2619 98.8519 34.2736C98.8413 34.2841 98.8273 34.2924 98.8132 34.297C98.7991 34.3017 98.7839 34.3029 98.7686 34.3006H97.9217C97.9064 34.3029 97.8912 34.3006 97.8771 34.297C97.863 34.2924 97.849 34.2841 97.8384 34.2736C97.8279 34.263 97.8196 34.2489 97.8149 34.2349C97.8103 34.2208 97.8091 34.2044 97.8114 34.1891V26.6126C97.8091 26.5973 97.8114 26.5821 97.8149 26.568C97.8196 26.5539 97.8279 26.5398 97.8384 26.5293C97.849 26.5187 97.863 26.5105 97.8771 26.5058C97.8912 26.5011 97.9064 26.4999 97.9217 26.5023H100.919C101.327 26.4941 101.732 26.5891 102.093 26.7803C102.425 26.9598 102.697 27.2307 102.879 27.5604C103.07 27.9158 103.166 28.3158 103.157 28.7193C103.171 29.192 103.029 29.6566 102.75 30.0401C102.468 30.4073 102.07 30.6654 101.619 30.7698C101.59 30.785 101.582 30.8038 101.597 30.8249L103.212 34.168C103.22 34.1856 103.224 34.2044 103.224 34.2231C103.224 34.2748 103.194 34.3006 103.135 34.3006H102.256L102.254 34.3029ZM98.9223 27.4278C98.9164 27.4278 98.9094 27.4278 98.9047 27.429C98.9 27.4302 98.893 27.4337 98.8894 27.4384C98.8847 27.4431 98.8824 27.4477 98.8801 27.4536C98.8777 27.4595 98.8777 27.4653 98.8789 27.4712V29.9674C98.8789 29.9733 98.8789 29.9803 98.8801 29.985C98.8824 29.9909 98.8847 29.9967 98.8894 30.0002C98.8941 30.0049 98.8988 30.0085 98.9047 30.0096C98.9106 30.0108 98.9164 30.012 98.9223 30.0108H100.784C100.957 30.019 101.131 29.992 101.293 29.9322C101.456 29.8724 101.605 29.7797 101.731 29.6601C101.851 29.5381 101.944 29.3926 102.006 29.2319C102.067 29.0712 102.095 28.9011 102.087 28.7299C102.095 28.5563 102.067 28.3826 102.006 28.2196C101.945 28.0565 101.851 27.9076 101.731 27.7832C101.605 27.6624 101.457 27.5686 101.294 27.5076C101.131 27.4466 100.957 27.4184 100.784 27.4266H98.9223V27.4278ZM112.661 26.4929C113.078 26.4847 113.49 26.5821 113.858 26.7768C114.197 26.9598 114.475 27.2366 114.661 27.5733C114.855 27.9357 114.953 28.3428 114.945 28.7545C114.954 29.1627 114.854 29.5674 114.655 29.924C114.463 30.2571 114.179 30.5281 113.836 30.7041C113.458 30.8953 113.04 30.9915 112.616 30.9821H110.655C110.649 30.9821 110.642 30.9821 110.637 30.9832C110.631 30.9856 110.626 30.9879 110.622 30.9926C110.617 30.9973 110.615 31.002 110.613 31.0079C110.61 31.0137 110.61 31.0196 110.611 31.0255V34.1903C110.614 34.2055 110.611 34.2208 110.608 34.236C110.603 34.2501 110.595 34.263 110.584 34.2748C110.574 34.2853 110.56 34.2935 110.546 34.2982C110.532 34.3029 110.516 34.3041 110.501 34.3017H109.654C109.639 34.3041 109.624 34.3017 109.61 34.2982C109.596 34.2935 109.582 34.2853 109.571 34.2748C109.56 34.2642 109.552 34.2501 109.548 34.236C109.543 34.222 109.542 34.2055 109.544 34.1903V26.602C109.542 26.5867 109.544 26.5715 109.548 26.5574C109.551 26.5433 109.56 26.5293 109.571 26.5187C109.582 26.5082 109.596 26.4999 109.61 26.4952C109.624 26.4906 109.639 26.4894 109.654 26.4917H112.663L112.661 26.4929ZM112.516 30.114C112.697 30.1222 112.878 30.0941 113.047 30.0307C113.216 29.9674 113.37 29.8712 113.502 29.7457C113.627 29.619 113.725 29.4665 113.789 29.3C113.853 29.1334 113.882 28.9551 113.875 28.7768C113.883 28.5961 113.854 28.4155 113.79 28.2454C113.726 28.0753 113.628 27.9216 113.503 27.7903C113.373 27.6648 113.218 27.5662 113.048 27.5029C112.878 27.4384 112.697 27.4102 112.516 27.4184H110.655C110.649 27.4184 110.642 27.4184 110.637 27.4196C110.631 27.4219 110.626 27.4243 110.622 27.429C110.617 27.4337 110.615 27.4384 110.613 27.4442C110.61 27.4501 110.61 27.456 110.611 27.4618V30.0683C110.611 30.0741 110.611 30.0812 110.613 30.0859C110.615 30.0917 110.617 30.0976 110.622 30.1011C110.627 30.1058 110.631 30.1093 110.637 30.1105C110.643 30.1117 110.649 30.1129 110.655 30.1117H112.516V30.114ZM125.631 34.3029C125.605 34.3053 125.579 34.2982 125.557 34.2841C125.535 34.2701 125.518 34.2489 125.509 34.2243L123.949 30.8929C123.946 30.8835 123.941 30.8742 123.932 30.8683C123.924 30.8624 123.915 30.8589 123.904 30.8589H122.299C122.294 30.8589 122.287 30.8589 122.282 30.8601C122.276 30.8624 122.27 30.8648 122.267 30.8695C122.262 30.8742 122.26 30.8788 122.257 30.8847C122.255 30.8906 122.255 30.8964 122.256 30.9023V34.1891C122.258 34.2044 122.256 34.2196 122.253 34.2349C122.248 34.2489 122.24 34.2619 122.229 34.2736C122.219 34.2841 122.204 34.2924 122.19 34.297C122.176 34.3017 122.161 34.3029 122.146 34.3006H121.299C121.284 34.3029 121.268 34.3006 121.254 34.297C121.24 34.2924 121.226 34.2841 121.216 34.2736C121.205 34.263 121.197 34.2489 121.192 34.2349C121.187 34.2208 121.186 34.2044 121.189 34.1891V26.6126C121.186 26.5973 121.189 26.5821 121.192 26.568C121.197 26.5539 121.205 26.5398 121.216 26.5293C121.226 26.5187 121.24 26.5105 121.254 26.5058C121.268 26.5011 121.284 26.4999 121.299 26.5023H124.296C124.704 26.4941 125.109 26.5891 125.47 26.7803C125.802 26.9598 126.074 27.2307 126.256 27.5604C126.447 27.9158 126.544 28.3158 126.534 28.7193C126.548 29.192 126.406 29.6566 126.127 30.0401C125.846 30.4073 125.447 30.6654 124.996 30.7698C124.967 30.785 124.959 30.8038 124.974 30.8249L126.589 34.168C126.597 34.1856 126.601 34.2044 126.601 34.2231C126.601 34.2748 126.572 34.3006 126.512 34.3006H125.633L125.631 34.3029ZM122.298 27.4278C122.292 27.4278 122.285 27.4278 122.281 27.429C122.275 27.4313 122.269 27.4337 122.265 27.4384C122.261 27.4431 122.258 27.4477 122.256 27.4536C122.254 27.4595 122.254 27.4653 122.255 27.4712V29.9674C122.255 29.9733 122.255 29.9803 122.256 29.985C122.258 29.9909 122.261 29.9967 122.265 30.0002C122.27 30.0049 122.275 30.0085 122.281 30.0096C122.287 30.0108 122.292 30.012 122.298 30.0108H124.16C124.334 30.019 124.506 29.992 124.669 29.9322C124.832 29.8724 124.981 29.7797 125.107 29.6601C125.227 29.5381 125.32 29.3926 125.382 29.2319C125.443 29.0712 125.471 28.9011 125.463 28.7299C125.471 28.5563 125.443 28.3826 125.382 28.2196C125.321 28.0565 125.227 27.9076 125.107 27.7832C124.981 27.6624 124.833 27.5686 124.67 27.5076C124.507 27.4466 124.334 27.4184 124.16 27.4266H122.298V27.4278ZM133.096 34.3029C133.081 34.3053 133.066 34.3029 133.051 34.2994C133.037 34.2947 133.023 34.2865 133.013 34.2759C133.002 34.2654 132.994 34.2513 132.988 34.2372C132.983 34.2231 132.982 34.2067 132.985 34.1915V26.6149C132.982 26.5996 132.985 26.5844 132.988 26.5703C132.993 26.5562 133.001 26.5422 133.013 26.5316C133.023 26.5211 133.036 26.5128 133.051 26.5082C133.066 26.5035 133.081 26.5023 133.096 26.5046H133.943C133.958 26.5023 133.973 26.5046 133.988 26.5082C134.002 26.5128 134.016 26.5211 134.026 26.5316C134.037 26.5422 134.045 26.5551 134.05 26.5703C134.054 26.5856 134.056 26.6008 134.053 26.6149V34.1915C134.056 34.2067 134.053 34.222 134.05 34.2372C134.045 34.2513 134.037 34.2642 134.026 34.2759C134.016 34.2865 134.002 34.2947 133.988 34.2994C133.973 34.3041 133.958 34.3053 133.943 34.3029H133.096ZM143.258 34.3921C142.749 34.4038 142.243 34.3135 141.771 34.1246C141.381 33.9709 141.044 33.707 140.8 33.3668C140.571 33.029 140.452 32.6278 140.46 32.2196V31.897C140.458 31.8818 140.46 31.8665 140.464 31.8525C140.467 31.8384 140.477 31.8243 140.487 31.8137C140.498 31.8032 140.512 31.795 140.526 31.7903C140.54 31.7856 140.555 31.7844 140.571 31.7856H141.383C141.399 31.7832 141.414 31.7856 141.428 31.7903C141.442 31.795 141.456 31.8032 141.467 31.8137C141.477 31.8243 141.485 31.8372 141.49 31.8525C141.495 31.8677 141.496 31.883 141.494 31.897V32.1645C141.494 32.3486 141.536 32.5305 141.622 32.6935C141.707 32.8566 141.832 32.9962 141.983 33.1006C142.381 33.3668 142.853 33.4959 143.331 33.4689C143.742 33.4994 144.152 33.3844 144.49 33.1463C144.615 33.0454 144.716 32.9152 144.784 32.7686C144.852 32.622 144.884 32.4613 144.879 32.2994C144.885 32.0847 144.813 31.8759 144.678 31.7093C144.514 31.5228 144.316 31.3692 144.093 31.2577C143.73 31.0724 143.355 30.907 142.973 30.7615C142.533 30.5997 142.103 30.4096 141.686 30.1926C141.378 30.0284 141.11 29.7985 140.9 29.5181C140.683 29.2108 140.574 28.8413 140.588 28.4648C140.575 28.1774 140.63 27.8923 140.75 27.6307C140.87 27.3692 141.048 27.1392 141.273 26.9609C141.81 26.5715 142.466 26.3791 143.129 26.4155C143.626 26.4049 144.119 26.4999 144.578 26.6935C144.966 26.8565 145.3 27.1275 145.542 27.4736C145.771 27.8161 145.889 28.2208 145.882 28.6325V28.8554C145.884 28.8706 145.882 28.8859 145.878 28.9011C145.874 28.9152 145.866 28.9281 145.855 28.9398C145.844 28.9504 145.83 28.9586 145.816 28.9633C145.802 28.968 145.787 28.9692 145.772 28.9668H144.937C144.921 28.9692 144.906 28.9668 144.892 28.9633C144.878 28.9586 144.864 28.9504 144.853 28.9398C144.843 28.9293 144.834 28.9152 144.829 28.9011C144.824 28.887 144.823 28.8706 144.825 28.8554V28.6888C144.827 28.5035 144.788 28.3205 144.707 28.1527C144.627 27.985 144.508 27.8395 144.363 27.7246C143.997 27.4501 143.544 27.314 143.088 27.3398C142.71 27.3164 142.335 27.4161 142.018 27.6237C141.893 27.7187 141.793 27.8431 141.727 27.9862C141.661 28.1293 141.631 28.2853 141.64 28.4425C141.631 28.6595 141.698 28.8718 141.829 29.0442C141.984 29.2225 142.176 29.3656 142.392 29.4618C142.641 29.585 143.021 29.7422 143.535 29.9357C143.972 30.1035 144.4 30.2947 144.816 30.5082C145.135 30.6759 145.412 30.9117 145.629 31.1991C145.852 31.5088 145.965 31.883 145.951 32.263C145.963 32.561 145.903 32.8566 145.779 33.1264C145.654 33.3962 145.467 33.6331 145.232 33.8173C144.659 34.229 143.961 34.4319 143.256 34.3921H143.258ZM157.552 27.3164C157.555 27.3316 157.552 27.3469 157.549 27.3609C157.544 27.375 157.536 27.3891 157.525 27.3997C157.515 27.4102 157.501 27.4184 157.487 27.4231C157.473 27.4278 157.457 27.429 157.442 27.4266H153.487C153.481 27.4266 153.474 27.4266 153.469 27.4278C153.463 27.4302 153.457 27.4325 153.454 27.4372C153.449 27.4419 153.447 27.4466 153.444 27.4524C153.442 27.4583 153.442 27.4642 153.443 27.47V29.8654C153.443 29.8712 153.443 29.8783 153.444 29.8829C153.447 29.8888 153.449 29.8947 153.454 29.8982C153.459 29.9017 153.463 29.9064 153.469 29.9076C153.475 29.9088 153.481 29.9099 153.487 29.9088H156.206C156.221 29.9064 156.236 29.9088 156.25 29.9134C156.264 29.9181 156.279 29.9263 156.289 29.9369C156.3 29.9475 156.308 29.9604 156.313 29.9756C156.317 29.9897 156.318 30.0061 156.316 30.0202V30.7217C156.318 30.7369 156.316 30.7522 156.313 30.7674C156.308 30.7815 156.3 30.7944 156.289 30.8061C156.279 30.8167 156.264 30.8249 156.25 30.8296C156.236 30.8343 156.221 30.8354 156.206 30.8331H153.487C153.481 30.8331 153.474 30.8331 153.469 30.8343C153.463 30.8366 153.457 30.839 153.454 30.8437C153.449 30.8483 153.447 30.853 153.444 30.8589C153.442 30.8648 153.442 30.8706 153.443 30.8765V33.3281C153.443 33.334 153.443 33.341 153.444 33.3457C153.447 33.3516 153.449 33.3574 153.454 33.361C153.459 33.3645 153.463 33.3692 153.469 33.3704C153.475 33.3715 153.481 33.3727 153.487 33.3715H157.442C157.457 33.3692 157.473 33.3715 157.487 33.3762C157.501 33.3809 157.515 33.3891 157.525 33.3997C157.536 33.4102 157.544 33.4231 157.549 33.4384C157.554 33.4525 157.555 33.4689 157.552 33.483V34.1844C157.555 34.1997 157.552 34.2149 157.549 34.2302C157.544 34.2443 157.536 34.2572 157.525 34.2689C157.515 34.2794 157.501 34.2877 157.487 34.2923C157.473 34.297 157.457 34.2982 157.442 34.2959H152.484C152.469 34.2982 152.453 34.2959 152.439 34.2923C152.425 34.2877 152.411 34.2794 152.401 34.2689C152.39 34.2583 152.382 34.2443 152.377 34.2302C152.372 34.2161 152.371 34.1997 152.374 34.1844V26.6079C152.371 26.5926 152.374 26.5774 152.377 26.5633C152.382 26.5492 152.39 26.5351 152.401 26.5246C152.411 26.514 152.425 26.5058 152.439 26.5011C152.453 26.4964 152.469 26.4952 152.484 26.4976H157.442C157.457 26.4952 157.473 26.4976 157.487 26.5011C157.501 26.5058 157.515 26.514 157.525 26.5246C157.536 26.5351 157.544 26.548 157.549 26.5633C157.554 26.5774 157.555 26.5938 157.552 26.6079V27.3093V27.3164Z" fill="#0252CD"/>
<path d="M48.6896 21.1721C48.6415 21.1792 48.5934 21.1768 48.5465 21.1639C48.4996 21.151 48.4574 21.1276 48.4198 21.0971C48.3823 21.0654 48.353 21.0267 48.333 20.9833C48.3119 20.9399 48.3013 20.8918 48.3013 20.8437L47.8227 17.9733C47.8227 17.8736 47.7629 17.8243 47.6433 17.8243H43.845C43.7254 17.8243 43.6655 17.8736 43.6655 17.9733L43.187 20.8437C43.187 20.8918 43.1752 20.9399 43.1541 20.9833C43.133 21.0267 43.1037 21.0654 43.0673 21.0971C43.0298 21.1287 42.9875 21.151 42.9406 21.1639C42.8937 21.1768 42.8456 21.1803 42.7975 21.1721H39.2984C39.0391 21.1721 38.9394 21.0431 38.9992 20.7839L43.3969 0.569114C43.4004 0.522193 43.4133 0.476445 43.4345 0.434216C43.4556 0.391987 43.4861 0.35445 43.5213 0.323951C43.5576 0.293453 43.5999 0.269992 43.6444 0.255916C43.6902 0.24184 43.7371 0.235975 43.784 0.240667H47.8204C47.8673 0.235975 47.9154 0.240667 47.96 0.255916C48.0046 0.269992 48.0468 0.293453 48.0832 0.323951C48.1195 0.35445 48.1488 0.391987 48.17 0.434216C48.1911 0.476445 48.2052 0.522193 48.2087 0.569114L52.5747 20.7827L52.6028 20.9023C52.6028 21.0818 52.4926 21.171 52.2744 21.171H48.6873L48.6896 21.1721ZM44.265 14.4132C44.265 14.5129 44.3048 14.5621 44.3846 14.5621H47.0755C47.1752 14.5621 47.2151 14.5129 47.1952 14.4132L45.7899 6.2489C45.7711 6.18908 45.7406 6.15975 45.7007 6.15975C45.6609 6.15975 45.6304 6.18908 45.6116 6.2489L44.2661 14.4132H44.265ZM60.1419 21.4114C58.3471 21.4114 56.9078 20.8976 55.8216 19.8712C54.7354 18.8448 54.1923 17.4736 54.1923 15.7598V5.65301C54.1923 3.93804 54.7354 2.56795 55.8216 1.54155C56.9078 0.513982 58.3483 0.000196463 60.1419 0.000196463C61.9354 0.000196463 63.3806 0.518674 64.4774 1.55563C65.5741 2.59258 66.1219 3.96737 66.1219 5.68116V6.81782C66.1219 6.86474 66.1137 6.91166 66.0961 6.95624C66.0785 6.99964 66.0516 7.03952 66.0175 7.07237C65.9847 7.10638 65.9448 7.13336 65.9014 7.15096C65.858 7.16855 65.8111 7.17794 65.7642 7.17677H62.265C62.2181 7.17677 62.1712 7.16855 62.1266 7.15096C62.0832 7.13336 62.0433 7.10638 62.0105 7.07237C61.9765 7.03952 61.9495 6.99964 61.9319 6.95624C61.9143 6.91283 61.9049 6.86591 61.9061 6.81782V5.62133C61.9307 5.09582 61.7606 4.57851 61.4275 4.17147C61.268 3.98848 61.0697 3.8442 60.848 3.74801C60.6251 3.65182 60.3847 3.60842 60.1419 3.61781C59.9049 3.6096 59.668 3.65534 59.4509 3.75036C59.2339 3.84655 59.0404 3.98966 58.8867 4.1703C58.5536 4.57851 58.3835 5.09465 58.4081 5.62016V15.7868C58.3835 16.3123 58.5536 16.8296 58.8867 17.2366C59.0404 17.4173 59.2339 17.5604 59.4509 17.6566C59.668 17.7528 59.9049 17.7973 60.1419 17.7903C60.3835 17.8009 60.6251 17.7563 60.848 17.6601C61.0709 17.5639 61.2691 17.4196 61.4275 17.2366C61.7595 16.8284 61.9307 16.3123 61.9061 15.7868V13.395C61.9084 13.375 61.9061 13.3539 61.9002 13.334C61.8932 13.314 61.8826 13.2964 61.8685 13.2824C61.8545 13.2683 61.8369 13.2566 61.8169 13.2507C61.797 13.2437 61.7771 13.2425 61.7559 13.2448H60.4398C60.3929 13.2448 60.346 13.2366 60.3014 13.219C60.258 13.2014 60.2181 13.1744 60.1853 13.1404C60.1512 13.1076 60.1243 13.0677 60.1067 13.0243C60.0891 12.9809 60.0797 12.934 60.0809 12.8859V10.2243C60.0809 10.1774 60.0891 10.1304 60.1067 10.0859C60.1243 10.0425 60.1512 10.0026 60.1853 9.96974C60.2181 9.93572 60.258 9.90874 60.3014 9.89115C60.3448 9.87355 60.3917 9.86417 60.4398 9.86534H65.7618C65.8087 9.86534 65.8557 9.87355 65.8991 9.89115C65.9425 9.90874 65.9824 9.93572 66.0152 9.96974C66.0492 10.0026 66.0762 10.0425 66.0938 10.0859C66.1114 10.1293 66.1208 10.1762 66.1196 10.2243V15.7563C66.1196 17.4712 65.5718 18.8413 64.475 19.8677C63.3782 20.8941 61.9331 21.4079 60.1395 21.4079L60.1419 21.4114ZM77.4557 21.1721C77.3619 21.1803 77.268 21.1557 77.1906 21.1006C77.1144 21.0454 77.0592 20.9645 77.0369 20.873L74.7343 12.6196C74.6944 12.5398 74.644 12.5 74.5853 12.5H73.5683C73.5484 12.4976 73.5273 12.5 73.5073 12.5058C73.4874 12.5129 73.4698 12.5234 73.4557 12.5375C73.4416 12.5516 73.4299 12.5692 73.424 12.5891C73.4182 12.609 73.4158 12.629 73.4193 12.6501V20.8144C73.4193 20.8613 73.4111 20.9082 73.3935 20.9528C73.3759 20.9962 73.349 21.0361 73.3149 21.0689C73.2821 21.1029 73.2422 21.1299 73.1988 21.1475C73.1554 21.1651 73.1085 21.1745 73.0616 21.1733H69.5624C69.5155 21.1733 69.4686 21.1651 69.424 21.1475C69.3806 21.1299 69.3407 21.1029 69.3079 21.0689C69.2739 21.0361 69.2469 20.9962 69.2293 20.9528C69.2117 20.9094 69.2023 20.8625 69.2035 20.8144V0.599612C69.2035 0.552691 69.2117 0.50577 69.2293 0.461195C69.2469 0.41662 69.2739 0.377911 69.3079 0.345066C69.3407 0.311048 69.3806 0.284069 69.424 0.266473C69.4674 0.248878 69.5143 0.239494 69.5624 0.240667H75.6023C76.6346 0.223071 77.6504 0.497559 78.5326 1.03246C79.3959 1.56736 80.0868 2.34156 80.5208 3.26003C81.0041 4.2876 81.2458 5.41371 81.2235 6.5492C81.2458 7.62369 81.0147 8.68997 80.5502 9.65889C80.1361 10.5175 79.4874 11.2436 78.6815 11.7516C78.6452 11.768 78.6147 11.7938 78.5924 11.8266C78.5818 11.8419 78.5771 11.8607 78.5771 11.8794C78.5771 11.8982 78.5818 11.9158 78.5924 11.9322L81.3419 20.7534L81.3701 20.873C81.3701 21.0724 81.2598 21.1721 81.0417 21.1721H77.4557ZM73.5683 3.85828C73.5484 3.85593 73.5273 3.85828 73.5073 3.86414C73.4874 3.87118 73.4698 3.88174 73.4557 3.89581C73.4416 3.90989 73.4299 3.92749 73.424 3.94743C73.4182 3.96737 73.4158 3.98731 73.4193 4.00842V9.12164C73.4158 9.14158 73.4193 9.1627 73.424 9.18264C73.4311 9.20258 73.4416 9.22018 73.4557 9.23425C73.4698 9.24833 73.4874 9.26006 73.5073 9.26592C73.5273 9.27296 73.5472 9.27414 73.5683 9.27179H74.9149C75.207 9.27765 75.4956 9.21431 75.7583 9.08762C76.0211 8.95976 76.2498 8.77208 76.4258 8.53982C76.8387 7.97325 77.0452 7.28116 77.0088 6.58087C77.0475 5.87119 76.8422 5.16855 76.4258 4.59259C76.2498 4.35916 76.0211 4.17147 75.7583 4.04479C75.4956 3.91693 75.207 3.85476 74.9149 3.86062H73.5683V3.85828ZM89.7748 21.4114C87.9414 21.4114 86.4763 20.873 85.3795 19.7962C84.2827 18.7193 83.7337 17.2847 83.7349 15.49V5.9228C83.7349 4.12925 84.2827 2.69346 85.3795 1.61663C86.4763 0.539788 87.9414 0.00136949 89.7748 0.00136949C91.6083 0.00136949 93.0792 0.539788 94.1866 1.61663C95.2939 2.69346 95.8476 4.12807 95.8464 5.9228V15.4912C95.8464 17.2847 95.2927 18.7205 94.1866 19.7973C93.0804 20.8742 91.6094 21.4126 89.7748 21.4126V21.4114ZM89.7748 17.7926C90.0282 17.802 90.2816 17.7551 90.5138 17.6542C90.7473 17.5533 90.9537 17.402 91.1203 17.2097C91.4745 16.7768 91.6552 16.2278 91.6282 15.6695V5.74216C91.6552 5.1838 91.4745 4.63482 91.1203 4.20197C90.9537 4.01077 90.7461 3.85828 90.5138 3.7574C90.2804 3.65652 90.0282 3.6096 89.7748 3.61898C89.5226 3.60842 89.2728 3.65534 89.0417 3.75622C88.8106 3.8571 88.6065 4.0096 88.4434 4.20197C88.0986 4.63834 87.9226 5.18614 87.9496 5.74216V15.6695C87.9226 16.2255 88.0974 16.7721 88.4434 17.2097C88.6065 17.402 88.8106 17.5545 89.0417 17.6554C89.2728 17.7563 89.5226 17.8032 89.7748 17.7926ZM110.944 15.4008C110.944 17.2554 110.386 18.6806 109.271 19.6765C108.154 20.6736 106.709 21.1721 104.935 21.1721H99.2845C99.2376 21.1721 99.1907 21.1639 99.1461 21.1463C99.1027 21.1287 99.0628 21.1017 99.03 21.0677C98.996 21.0349 98.969 20.995 98.9514 20.9516C98.9338 20.9082 98.9244 20.8613 98.9256 20.8132V0.599612C98.9256 0.552691 98.9338 0.50577 98.9514 0.461195C98.969 0.41662 98.996 0.377911 99.03 0.345066C99.0628 0.311048 99.1027 0.284069 99.1461 0.266473C99.1895 0.248878 99.2365 0.239494 99.2845 0.240667H104.278C106.271 0.240667 107.831 0.719261 108.957 1.67645C110.083 2.63364 110.646 4.05886 110.648 5.95213C110.648 7.92516 109.97 9.36094 108.614 10.2583C108.534 10.3181 108.524 10.378 108.585 10.4378C110.16 11.5545 110.947 13.2085 110.947 15.4008H110.944ZM103.29 3.85828C103.27 3.85593 103.249 3.85828 103.229 3.86414C103.209 3.87118 103.192 3.88174 103.178 3.89581C103.164 3.90989 103.152 3.92749 103.146 3.94743C103.14 3.96737 103.138 3.98731 103.141 4.00842V8.70287C103.138 8.72281 103.141 8.74393 103.146 8.76387C103.153 8.78381 103.164 8.80141 103.178 8.81548C103.192 8.82956 103.209 8.84129 103.229 8.84715C103.249 8.85419 103.269 8.85537 103.29 8.85302H104.367C104.663 8.86944 104.957 8.82017 105.232 8.70874C105.505 8.5973 105.751 8.42721 105.952 8.2102C106.359 7.69876 106.561 7.0536 106.52 6.4014C106.52 5.5838 106.336 4.95623 105.966 4.51752C105.767 4.29347 105.519 4.11752 105.242 4.00373C104.966 3.88995 104.665 3.83951 104.366 3.85945H103.289L103.29 3.85828ZM104.605 17.5229C104.902 17.5358 105.199 17.4771 105.47 17.3516C105.741 17.2272 105.978 17.0396 106.161 16.805C106.54 16.3264 106.729 15.6484 106.729 14.7709C106.767 14.0308 106.568 13.2964 106.161 12.6783C105.992 12.4319 105.763 12.2313 105.497 12.0964C105.231 11.9604 104.935 11.8935 104.636 11.9017H103.289C103.269 11.8994 103.248 11.9017 103.228 11.9076C103.208 11.9146 103.191 11.9252 103.177 11.9392C103.163 11.9533 103.151 11.9709 103.145 11.9909C103.139 12.0108 103.137 12.0307 103.14 12.0519V17.3739C103.137 17.3938 103.14 17.4149 103.145 17.4349C103.152 17.4548 103.163 17.4724 103.177 17.4865C103.191 17.5006 103.208 17.5123 103.228 17.5182C103.248 17.5252 103.268 17.5264 103.289 17.524H104.605V17.5229ZM121.979 21.171C121.885 21.1792 121.791 21.1545 121.714 21.0994C121.638 21.0443 121.583 20.9633 121.56 20.8718L119.258 12.6184C119.218 12.5387 119.167 12.4988 119.109 12.4988H118.092C118.072 12.4964 118.051 12.4988 118.031 12.5046C118.011 12.5117 117.993 12.5222 117.979 12.5363C117.965 12.5504 117.953 12.568 117.947 12.5879C117.942 12.6079 117.939 12.6278 117.943 12.6489V20.8132C117.943 20.8601 117.934 20.907 117.917 20.9516C117.899 20.995 117.872 21.0349 117.838 21.0677C117.805 21.1017 117.766 21.1287 117.722 21.1463C117.679 21.1639 117.632 21.1733 117.585 21.1721H114.087C114.04 21.1721 113.993 21.1639 113.949 21.1463C113.905 21.1287 113.865 21.1017 113.832 21.0677C113.798 21.0349 113.771 20.995 113.754 20.9516C113.736 20.9082 113.727 20.8613 113.728 20.8132V0.599612C113.728 0.552691 113.736 0.50577 113.754 0.461195C113.771 0.417794 113.798 0.377911 113.832 0.345066C113.865 0.311048 113.905 0.284069 113.949 0.266473C113.992 0.248878 114.039 0.239494 114.087 0.240667H120.127C121.159 0.223071 122.175 0.497559 123.057 1.03246C123.92 1.56736 124.611 2.34156 125.045 3.26003C125.529 4.2876 125.77 5.41371 125.748 6.5492C125.77 7.62369 125.539 8.68997 125.075 9.65889C124.661 10.5175 124.012 11.2436 123.206 11.7516C123.17 11.768 123.139 11.7938 123.117 11.8266C123.106 11.8419 123.102 11.8607 123.102 11.8794C123.102 11.8982 123.106 11.9158 123.117 11.9322L125.866 20.7534L125.895 20.873C125.895 21.0724 125.784 21.1721 125.566 21.1721H121.979V21.171ZM118.092 3.85828C118.072 3.85593 118.051 3.85828 118.031 3.86414C118.011 3.87118 117.993 3.88174 117.979 3.89581C117.965 3.90989 117.953 3.92749 117.947 3.94743C117.942 3.96737 117.939 3.98731 117.943 4.00842V9.12164C117.939 9.14158 117.943 9.1627 117.947 9.18264C117.954 9.20258 117.965 9.22018 117.979 9.23425C117.993 9.24833 118.011 9.26006 118.031 9.26592C118.051 9.27179 118.071 9.27414 118.092 9.27179H119.438C119.73 9.27765 120.019 9.21431 120.282 9.08762C120.544 8.95976 120.773 8.77208 120.949 8.53982C121.362 7.97325 121.569 7.28116 121.532 6.58087C121.571 5.87119 121.366 5.16855 120.949 4.59259C120.773 4.35916 120.544 4.17147 120.282 4.04479C120.019 3.91693 119.73 3.85476 119.438 3.86062H118.092V3.85828ZM137.498 21.171C137.45 21.178 137.402 21.1756 137.355 21.1627C137.308 21.1498 137.266 21.1264 137.228 21.0959C137.191 21.0642 137.162 21.0255 137.142 20.9821C137.12 20.9387 137.11 20.8906 137.11 20.8425L136.631 17.9721C136.631 17.8724 136.572 17.8231 136.452 17.8231H132.655C132.535 17.8231 132.475 17.8724 132.475 17.9721L131.997 20.8425C131.997 20.8906 131.985 20.9387 131.964 20.9821C131.943 21.0255 131.913 21.0642 131.877 21.0959C131.84 21.1276 131.797 21.1498 131.75 21.1627C131.703 21.1756 131.655 21.1792 131.607 21.171H128.108C127.849 21.171 127.749 21.0419 127.809 20.7827L132.204 0.569114C132.208 0.522193 132.221 0.476445 132.242 0.434216C132.264 0.391987 132.293 0.35445 132.329 0.323951C132.365 0.293453 132.407 0.269992 132.452 0.255916C132.498 0.24184 132.545 0.235975 132.591 0.240667H136.628C136.675 0.235975 136.723 0.240667 136.767 0.255916C136.812 0.269992 136.854 0.293453 136.891 0.323951C136.927 0.35445 136.956 0.391987 136.977 0.434216C136.998 0.476445 137.013 0.522193 137.016 0.569114L141.382 20.7827L141.41 20.9023C141.41 21.0818 141.3 21.171 141.082 21.171H137.494H137.498ZM133.074 14.4132C133.074 14.5129 133.113 14.5621 133.193 14.5621H135.884C135.984 14.5621 136.024 14.5129 136.004 14.4132L134.598 6.2489C134.58 6.18908 134.549 6.15975 134.509 6.15975C134.469 6.15975 134.439 6.18908 134.42 6.2489L133.075 14.4132H133.074ZM145.632 21.171C145.585 21.1745 145.537 21.1698 145.492 21.1557C145.448 21.1416 145.406 21.1182 145.369 21.0877C145.333 21.0572 145.304 21.0196 145.282 20.9774C145.261 20.9352 145.247 20.8894 145.244 20.8425L140.967 0.628938L140.939 0.50929C140.939 0.329817 141.048 0.240667 141.267 0.240667H145.124C145.172 0.233629 145.22 0.235975 145.267 0.248878C145.314 0.261781 145.356 0.285242 145.394 0.31574C145.43 0.347412 145.461 0.386122 145.481 0.429524C145.502 0.472926 145.512 0.52102 145.513 0.569114L147.576 13.7258C147.594 13.8055 147.625 13.8454 147.665 13.8454C147.705 13.8454 147.735 13.8055 147.754 13.7258L149.757 0.569114C149.757 0.52102 149.769 0.472926 149.789 0.429524C149.81 0.386122 149.84 0.347412 149.876 0.31574C149.912 0.284069 149.956 0.261781 150.003 0.248878C150.05 0.235975 150.098 0.232455 150.146 0.240667H153.883C154.142 0.240667 154.242 0.369699 154.182 0.628938L149.876 20.8425C149.872 20.8894 149.86 20.9352 149.837 20.9774C149.816 21.0196 149.786 21.0572 149.75 21.0877C149.714 21.1182 149.672 21.1416 149.627 21.1557C149.582 21.1698 149.535 21.1756 149.488 21.171H145.63H145.632ZM162.168 21.4091C160.335 21.4091 158.87 20.8707 157.773 19.7938C156.676 18.717 156.127 17.2824 156.128 15.4876V5.92046C156.128 4.1269 156.676 2.69112 157.773 1.61428C158.87 0.537442 160.335 -0.000976562 162.168 -0.000976562C164.002 -0.000976562 165.473 0.537442 166.58 1.61428C167.687 2.69112 168.241 4.12573 168.24 5.92046V15.4888C168.24 17.2824 167.686 18.7182 166.58 19.795C165.474 20.8718 164.003 21.4103 162.168 21.4114V21.4091ZM162.168 17.7915C162.421 17.8009 162.675 17.7539 162.907 17.6531C163.141 17.5522 163.347 17.4009 163.514 17.2085C163.868 16.7756 164.048 16.2267 164.021 15.6683V5.74098C164.048 5.18262 163.867 4.63365 163.514 4.2008C163.347 4.0096 163.139 3.8571 162.907 3.75622C162.674 3.65534 162.421 3.60842 162.168 3.61781C161.916 3.60725 161.666 3.65417 161.435 3.75505C161.204 3.85593 161 4.00842 160.837 4.2008C160.492 4.63717 160.316 5.18497 160.343 5.74098V15.6683C160.316 16.2243 160.491 16.7709 160.837 17.2085C160.999 17.4009 161.204 17.5533 161.434 17.6542C161.665 17.7551 161.915 17.8032 162.167 17.7926L162.168 17.7915Z" fill="#0252CD"/>
<path d="M33.8785 16.0918C31.3049 15.0325 28.6375 14.2184 25.9102 13.6601C22.9577 13.0583 19.9524 12.7557 16.9401 12.7557C13.9265 12.7557 10.9213 13.0583 7.96875 13.6601C5.24147 14.2184 2.57284 15.0325 -0.00195312 16.0918V1.4618C-0.00195312 1.15094 0.121215 0.851823 0.341743 0.632467C0.561099 0.411938 0.86022 0.288771 1.17107 0.287598H32.7032C33.014 0.287598 33.3131 0.411938 33.5325 0.632467C33.753 0.852996 33.8762 1.15094 33.8762 1.4618V16.0918H33.8785ZM7.10072 3.29523L6.04617 6.11284L3.04439 6.24657L5.39514 8.12223L4.59279 11.0231L7.09954 9.36447L9.6063 11.0231L8.80395 8.12223L11.1547 6.24657L8.15292 6.11284L7.10072 3.29523ZM23.8421 6.25712L23.4574 7.33748L22.3618 7.38909L23.2193 8.10699L22.9272 9.21901L23.8421 8.58323L24.7571 9.21901L24.465 8.10699L25.3225 7.38909L24.2269 7.33748L23.8421 6.25712ZM16.7594 3.29523L16.106 5.07941L14.248 5.16504L15.7037 6.35214L15.2087 8.1891L16.7606 7.13924L18.3125 8.1891L17.8175 6.35214L19.2732 5.16504L17.414 5.07941L16.7606 3.29523H16.7594ZM29.8961 3.42309L29.5114 4.45653L28.4158 4.5058L29.2732 5.19319L28.9812 6.25595L29.8973 5.64832L30.8123 6.25595L30.5202 5.19319L31.38 4.5058L30.2844 4.45653L29.8973 3.42309H29.8961Z" fill="#0252CD"/>
<path d="M32.7063 34.1306H19.9473C23.1532 31.4432 26.7415 29.2485 30.5925 27.618C31.6658 27.164 32.772 26.7499 33.8793 26.3875V32.9576C33.8793 33.2684 33.755 33.5664 33.5356 33.7869C33.3151 34.0074 33.0171 34.1306 32.7063 34.1306ZM16.42 34.1306H1.1742C0.862174 34.1306 0.564225 34.0074 0.343696 33.7869C0.123168 33.5664 0 33.2673 0 32.9564V29.8092C0.375368 29.537 0.757774 29.2696 1.13783 29.0127C5.79474 25.8796 11.03 23.7048 16.5361 22.615C22.0423 21.5253 27.7104 21.5441 33.2107 22.6678C33.4371 22.7147 33.6623 22.7628 33.8793 22.8109V23.9265C29.7022 25.2133 25.7385 27.1124 22.1186 29.5605C20.0986 30.9259 18.1924 32.4544 16.42 34.1294V34.1306ZM0 26.9482V18.6044C0.179473 18.5259 0.3566 18.4496 0.526688 18.3769C3.07802 17.2989 5.72906 16.4754 8.44226 15.9194C14.0493 14.7769 19.83 14.7769 25.4382 15.9194C28.1514 16.4754 30.8025 17.2977 33.3526 18.3769C33.5251 18.4496 33.6998 18.5259 33.8793 18.6044V20.4097L33.6834 20.3699C27.7643 19.164 21.6623 19.164 15.742 20.3699C10.1173 21.5218 4.77069 23.7564 0 26.9494V26.9482Z" fill="#08B078"/>
</g>
<defs>
<clipPath id="clip0_6264_61327">
<rect width="168.24" height="34.3978" fill="white"/>
</clipPath>
</defs>
</svg>
